<mxfile host="65bd71144e">
    <diagram id="sbWO73eXpjl8EwGFxbOy" name="Page-1">
        <mxGraphModel dx="1739" dy="648" grid="1" gridSize="10" guides="1" tooltips="1" connect="1" arrows="1" fold="1" page="1" pageScale="1" pageWidth="827" pageHeight="1169" math="0" shadow="0">
            <root>
                <mxCell id="0"/>
                <mxCell id="1" parent="0"/>
                <mxCell id="3" value="" style="shape=image;verticalLabelPosition=bottom;labelBackgroundColor=default;verticalAlign=top;aspect=fixed;imageAspect=0;image=data:image/svg+xml,PHN2ZyB4bWxucz0iaHR0cDovL3d3dy53My5vcmcvMjAwMC9zdmciIGhlaWdodD0iMTI5Ni41MTI5IiB3aWR0aD0iMTI4MS40ODI5IiB4bWw6c3BhY2U9InByZXNlcnZlIiB2aWV3Qm94PSIwIDAgMTI4MS40ODI5IDEyOTYuNTEzIiB5PSIwcHgiIHg9IjBweCIgaWQ9IkxhYWdfMSIgdmVyc2lvbj0iMS4xIj48ZGVmcyBpZD0iZGVmczYiLz4KPHN0eWxlIGlkPSJzdHlsZTEiIHR5cGU9InRleHQvY3NzIj4KCS5zdDB7ZmlsbDojNjU2NTY1O30KCS5zdDF7ZmlsbDp1cmwoI1NWR0lEXzFfKTt9Cgkuc3Qye2ZpbGw6dXJsKCNTVkdJRF8yXyk7fQoJLnN0M3tvcGFjaXR5OjAuNDQ0O2ZpbGw6dXJsKCNTVkdJRF8zXyk7ZW5hYmxlLWJhY2tncm91bmQ6bmV3ICAgIDt9Cjwvc3R5bGU+Cgo8bGluZWFyR3JhZGllbnQgZ3JhZGllbnRUcmFuc2Zvcm09Im1hdHJpeCg5LjI1NjMsMCwwLC05LjM0NjgsLTExOTU3NS44OCwtMjUyNDAwLjAzKSIgeTI9Ii0yNzA3My40MDIiIHgyPSIxMjk5MS4wMjYiIHkxPSItMjcwMDcuNjgiIHgxPSIxMjkxNC42MzgiIGdyYWRpZW50VW5pdHM9InVzZXJTcGFjZU9uVXNlIiBpZD0iU1ZHSURfMV8iPgoJPHN0b3AgaWQ9InN0b3AxIiBzdHlsZT0ic3RvcC1jb2xvcjojNUNBMEQ1IiBvZmZzZXQ9IjAiLz4KCTxzdG9wIGlkPSJzdG9wMiIgc3R5bGU9InN0b3AtY29sb3I6IzMxNkE5OSIgb2Zmc2V0PSIxIi8+CjwvbGluZWFyR3JhZGllbnQ+CjxwYXRoIHN0eWxlPSJmaWxsOnVybCgjU1ZHSURfMV8pIiBpZD0icGF0aDIiIGQ9Im0gNjMyLjEwNDE3LDAuMzAxNjM5MzYgYyAtNTIuNywwIC0xMDMuNyw0LjkwMDAwMDA0IC0xNDguMSwxMy4xOTk5OTk2NCAtMTMxLjYsMjMgLTE1NC43LDcwLjggLTE1NC43LDE2MS4zMDAwMDEgdiAxMTguNSBoIDMwOS40IHYgMzkuNSBoIC00MjQuNiBjIC04OC45LDAgLTE2Ny44MDAwMDUsNTQuMyAtMTkyLjUwMDAwNSwxNTYuMyAtMjcuOTk5OTk5OSwxMTguNSAtMjkuNTk5OTk5OSwxOTAuOSAwLDMxNC4zIDIxLjQsOTIuMiA3NC4xLDE1Ni4zIDE2NC42MDAwMDUsMTU2LjMgaCAxMDcgdiAtMTQxLjUgYyAwLC0xMDIgODguOSwtMTkyLjUgMTkyLjUsLTE5Mi41IGggMzA3LjcgYyA4NS42LDAgMTU0LjcsLTcwLjggMTU0LjcsLTE1OCB2IC0yOTQuNiBjIDAsLTgzLjkwMDAwMSAtNzAuOCwtMTQ2LjUwMDAwMSAtMTU0LjcsLTE2MS4zMDAwMDEgLTU0LjQsLTguMTk5OTk5NiAtMTA4LjcsLTEzLjA5OTk5OTYgLTE2MS4zLC0xMS40OTk5OTk2NCB6IG0gLTE2Ny45LDkzLjc5OTk5OTY0IGMgMzEuMywwIDU3LjYsMjYuMzAwMDAxIDU3LjYsNTkuMjAwMDAxIDAsMzIuOSAtMjYuMyw1OS4yIC01Ny42LDU5LjIgLTMxLjMsMCAtNTcuNiwtMjYuMyAtNTcuNiwtNTkuMiAwLC0zMi45IDI0LjcsLTU5LjIwMDAwMSA1Ny42LC01OS4yMDAwMDEgeiIgY2xhc3M9InN0MSIvPgo8bGluZWFyR3JhZGllbnQgZ3JhZGllbnRUcmFuc2Zvcm09Im1hdHJpeCg5LjI1NjMsMCwwLC05LjM0NjgsLTExOTU3NS44OCwtMjUyNDAwLjAzKSIgeTI9Ii0yNzA3NC41MzkiIHgyPSIxMjk5My40MTkiIHkxPSItMjcxMTMuMTMzIiB4MT0iMTMwMjAuNjk3IiBncmFkaWVudFVuaXRzPSJ1c2VyU3BhY2VPblVzZSIgaWQ9IlNWR0lEXzJfIj4KCTxzdG9wIGlkPSJzdG9wMyIgc3R5bGU9InN0b3AtY29sb3I6I0ZGRDQzRSIgb2Zmc2V0PSIwIi8+Cgk8c3RvcCBpZD0ic3RvcDQiIHN0eWxlPSJzdG9wLWNvbG9yOiNGRkU5NzUiIG9mZnNldD0iMSIvPgo8L2xpbmVhckdyYWRpZW50Pgo8cGF0aCBzdHlsZT0iZmlsbDp1cmwoI1NWR0lEXzJfKSIgaWQ9InBhdGg0IiBkPSJtIDk4NS45MDQxNywzMjkuNDAxNjQgdiAxMzYuNiBjIDAsMTA3IC05MC41LDE5NS44IC0xOTQuMiwxOTUuOCBoIC0zMDcuNyBjIC04My45LDAgLTE1NC43LDcyLjQgLTE1NC43LDE1OCB2IDI5NC41OTk5NiBjIDAsODMuOSA3Mi40LDEzMy4zIDE1NC43LDE1OCA5Ny4xLDI5LjYgMTkwLjksMzQuNiAzMDkuNCwwIDc3LjMsLTIzIDE1NC43LC02Ny41IDE1NC43LC0xNTggViA5OTUuOTAxNjQgaCAtMzA5LjUgdiAtMzkuNSBoIDQ2NC4xMDAwMyBjIDg4LjksMCAxMjMuNCwtNjIuNSAxNTQuNywtMTU2LjMgMzIuOSwtOTcuMSAzMS4zLC0xODkuMiAwLC0zMTQuMyAtMjEuNCwtODguOSAtNjQuMiwtMTU2LjMgLTE1NC43LC0xNTYuMyB6IG0gLTE3NC41LDc0NS40OTk5NiBjIDMxLjMsMCA1Ny42LDI2LjMgNTcuNiw1OS4yIDAsMzIuOSAtMjYuMyw1OS4yIC01Ny42LDU5LjIgLTMxLjMsMCAtNTcuNiwtMjYuMyAtNTcuNiwtNTkuMiAwLC0zMi45IDI2LjQsLTU5LjIgNTcuNiwtNTkuMiB6IiBjbGFzcz0ic3QyIi8+Cgo8cmFkaWFsR3JhZGllbnQgZ3JhZGllbnRVbml0cz0idXNlclNwYWNlT25Vc2UiIGdyYWRpZW50VHJhbnNmb3JtPSJtYXRyaXgoMCwtMy45NDc3LC0xNy4zNTU4LDAsLTI0MDAyMC44MywtMzI2MzU3LjcyKSIgcj0iMjAuMzM5NiIgY3k9Ii0xMzg2Ni4zOTgiIGN4PSItODMwMzkuNjY0IiBpZD0iU1ZHSURfM18iPgoJPHN0b3AgaWQ9InN0b3A1IiBzdHlsZT0ic3RvcC1jb2xvcjojQjhCOEI4O3N0b3Atb3BhY2l0eTowLjQ5OCIgb2Zmc2V0PSIwIi8+Cgk8c3RvcCBpZD0ic3RvcDYiIHN0eWxlPSJzdG9wLWNvbG9yOiM3RjgwODA7c3RvcC1vcGFjaXR5OjAiIG9mZnNldD0iMSIvPgo8L3JhZGlhbEdyYWRpZW50PgoKPC9zdmc+;" parent="1" vertex="1">
                    <mxGeometry width="118.62" height="120" as="geometry"/>
                </mxCell>
                <mxCell id="4" value="&lt;font style=&quot;font-size: 20px;&quot;&gt;numÃ©rique&lt;br&gt;&lt;/font&gt;" style="text;html=1;strokeColor=none;fillColor=none;align=center;verticalAlign=middle;whiteSpace=wrap;rounded=0;rotation=-30;" parent="1" vertex="1">
                    <mxGeometry x="-20" y="60" width="171.38" height="40" as="geometry"/>
                </mxCell>
            </root>
        </mxGraphModel>
    </diagram>
</mxfile>